{"title":"Minions.2015.HD-TS.XVID.AC3.HQ.Hive-CM8","uid":12072605,"size":1576119871,"categoryP":"video","categoryS":"movies","magnet":"?xt=urn:btih:e0e2512a8a3bbe53a8774dc39fa6d2ff0c58bcb9&amp;dn=Minions.2015.HD-TS.XVID.AC3.HQ.Hive-CM8&amp;tr=udp%3A%2F%2Ftracker.openbittorrent.com%3A80&amp;tr=udp%3A%2F%2Fopen.demonii.com%3A1337&amp;tr=udp%3A%2F%2Ftracker.coppersurfer.tk%3A6969&amp;tr=udp%3A%2F%2Fexodus.desync.com%3A6969","seeders":172,"leechers":38,"uploader":"xxxlavalxxx","files":4,"time":1435556523,"description":" &lt;a href=&quot;http://extraimago.com/image/soA&quot; rel=&quot;nofollow&quot; target=&quot;_NEW&quot;&gt;http://extraimago.com/image/soA&lt;/a&gt;\n &lt;a href=&quot;\nhttp://www.imdb.com/title/tt2293640/&quot; rel=&quot;nofollow&quot; target=&quot;_NEW&quot;&gt;\nhttp://www.imdb.com/title/tt2293640/&lt;/a&gt;\n\n\nMinions Stuart, Kevin and Bob are recruited by Scarlet Overkill, a super-villain who, alongside her inventor husband Herb, hatches a plot to take over the world.\n\nDirectors: Kyle Balda, Pierre Coffin\nWriter: Brian Lynch\nStars: Pierre Coffin, Sandra Bullock, Jon Hamm\nGenres: Animation | Comedy | Family\nCountry: USA\nLanguage: English\n\n\nMinions.2015.HD-TS.XVID.AC3.HQ.Hive-CM8\n\nThx Hive\n\nCM8 Doing It Right The First Time\n\nSources:\n\nVideo: both Portuguese HD-Cams\nAudio: Sweet Line Big Thx to S4NDM4N\n\nNotes:\n\nFirst Portuguese cam has great quality as it should be, but was missing some minutes\nSecond time they went they did a complete version, bit more zoomed in and a bit unsharp, but still ok to watch\nThey wont go a third time i read, and i do think its not needed anyways\nMovie hits most of europe in august, so a 720p is not around within the next month and by that time a web-dl might be out already\nthis will do just fine\n\nIt would be easier to just use the second cam cause its complete but why not use the better one as main body and fill in the gaps from the 2nd one, to get a perfect release\nTook me 6 further hours to cut in the parts, so video is now complete and even the afterend credits are now fully there, so all from 0 to end\n\nEncode:\n\nFirst cam was great as mentioned, but needed rotating and fixing perspective, fixed rgb added sharpness and removed some flicker\nSecond cam was not that sharp, cause it was zoomed in a bit, i added borders and centered to meet the resolution of first cam\n\nAudio was very good again thx S4NDM4N,Lipsynced audio to my video\n\nwill do me till retail\nenjoy\n\nVideo: 680x336 @bitrate 2200 2pass\nAudio: English Line Stereo 2.0\nSample: yes included\n\nyou have access to 0 day HDCams? msg me\n &lt;a href=&quot;\nhttp://www.imdb.com/title/tt2293640/&quot; rel=&quot;nofollow&quot; target=&quot;_NEW&quot;&gt;\nhttp://www.imdb.com/title/tt2293640/&lt;/a&gt;\n\nGeneral\nComplete name: Minions.2015.HD-TS.XVID.AC3.HQ.Hive-CM8.avi\nFormat: AVI\nFormat/Info: Audio Video Interleave\nFile size: 1.29 GiB\nDuration: 1h 23mn\nOverall bit rate: 2 206 Kbps\n\nVideo\nID: 0\nFormat: MPEG-4 Visual\nFormat profile: Advanced Simple@L5\nFormat settings, BVOP: 2\nFormat settings, QPel: Yes\nFormat settings, GMC: No warppoints\nFormat settings, Matrix: Default (H.263)\nMuxing mode: Packed bitstream\nCodec ID: XVID\nCodec ID/Hint: XviD\nDuration: 1h 23mn\nBit rate: 2 200 Kbps\nWidth: 680 pixels\nHeight: 336 pixels\nDisplay aspect ratio: 2.024\nFrame rate: 29.970 fps\nColor space: YUV\nChroma subsampling: 4:2:0\nBit depth: 8 bits\nScan type: Progressive\nCompression mode: Lossy\nBits/(Pixel*Frame): 0.321\nStream size: 1.29 GiB (100%)\nWriting library: XviD 1.2.1 (UTC 2008-12-04)\n\nAudio\nID: 1\nFormat: AC-3\nFormat/Info: Audio Coding 3\nMode extension: CM (complete main)\nFormat settings, Endianness: Big\nCodec ID: 2000\nDuration: 1h 23mn\nBit rate mode: Constant\nBit rate: 256 Kbps\nChannel(s): 2 channels\nChannel positions: Front: L R\nSampling rate: 48.0 KHz\nBit depth: 16 bits\nCompression mode: Lossy\nStream size: 158 MiB (12%)\nAlignment: Split accross interleaves\nInterleave, duration: 42 ms (1.00 video frame)\nInterleave, preload duration: 500 ms\n\n &lt;a href=&quot;\nhttp://extraimago.com/image/soW&quot; rel=&quot;nofollow&quot; target=&quot;_NEW&quot;&gt;\nhttp://extraimago.com/image/soW&lt;/a&gt; &lt;a href=&quot;\nhttp://extraimago.com/image/sof&quot; rel=&quot;nofollow&quot; target=&quot;_NEW&quot;&gt;\nhttp://extraimago.com/image/sof&lt;/a&gt; &lt;a href=&quot;\nhttp://extraimago.com/image/st8&quot; rel=&quot;nofollow&quot; target=&quot;_NEW&quot;&gt;\nhttp://extraimago.com/image/st8&lt;/a&gt; &lt;a href=&quot;\nhttp://extraimago.com/image/sta&quot; rel=&quot;nofollow&quot; target=&quot;_NEW&quot;&gt;\nhttp://extraimago.com/image/sta&lt;/a&gt; &lt;a href=&quot;\nhttp://extraimago.com/image/stw&quot; rel=&quot;nofollow&quot; target=&quot;_NEW&quot;&gt;\nhttp://extraimago.com/image/stw&lt;/a&gt; &lt;a href=&quot;\nhttp://extraimago.com/image/st2&quot; rel=&quot;nofollow&quot; target=&quot;_NEW&quot;&gt;\nhttp://extraimago.com/image/st2&lt;/a&gt; &lt;a href=&quot;\nhttp://extraimago.com/image/stN&quot; rel=&quot;nofollow&quot; target=&quot;_NEW&quot;&gt;\nhttp://extraimago.com/image/stN&lt;/a&gt; &lt;a href=&quot;\nhttp://extraimago.com/image/stT&quot; rel=&quot;nofollow&quot; target=&quot;_NEW&quot;&gt;\nhttp://extraimago.com/image/stT&lt;/a&gt;","torrent":{"xt":"urn:btih:e0e2512a8a3bbe53a8774dc39fa6d2ff0c58bcb9","amp;dn":"Minions.2015.HD-TS.XVID.AC3.HQ.Hive-CM8","amp;tr":["udp%3A%2F%2Ftracker.openbittorrent.com%3A80","udp%3A%2F%2Fopen.demonii.com%3A1337","udp%3A%2F%2Ftracker.coppersurfer.tk%3A6969","udp%3A%2F%2Fexodus.desync.com%3A6969"],"infoHash":"e0e2512a8a3bbe53a8774dc39fa6d2ff0c58bcb9","infoHashBuffer":{"type":"Buffer","data":[224,226,81,42,138,59,190,83,168,119,77,195,159,166,210,255,12,88,188,185]},"announce":[],"urlList":[]}}